<svg version="1.0" xmlns="http://www.w3.org/2000/svg" width="480" height="480" viewBox="0 0 360 360"><path d="M244.5 78.9c-6.8 1.8-11.9 5.8-29.2 23.3-20.9 21-22.7 23.8-22.6 35.3 0 4.2.7 8.6 1.7 10.9l1.6 4 4-3.9c3.7-3.6 3.9-4 3.7-9.9-.1-4.5.5-7.2 2-10.1 1.2-2.2 9.7-11.5 19-20.6C241.6 91.2 244.6 89 251.4 89c6.3 0 12.7 4 16.7 10.5 2.1 3.4 2.5 11.7.8 16.2-1.4 3.7-33.4 35.9-38.1 38.4-2.2 1.1-5.7 1.9-8.6 1.9-4.3 0-5.2.4-8.7 4-3.3 3.4-3.7 4.2-2.5 5 4.7 3 18.2 2.4 25-1 2.7-1.4 11.5-9.2 21.8-19.4 20.7-20.5 23.2-24.4 23.2-36.5 0-9-1.9-13.9-7.9-20.4-6.7-7.3-19.5-11.2-28.6-8.8zM172.6 126.9c-.5.7 1.2 21.6 1.8 23.6.2.5.7-4.3 1.1-10.7.4-6.5.8-12.1.9-12.4.2-1-3.3-1.4-3.8-.5zM150.8 127.5c-.3.4 1 4.2 3 8.6 1.9 4.3 3.7 7.8 3.8 7.6.2-.1-.7-3.8-2-8.2-2.1-7.3-3.4-9.4-4.8-8z"/><path d="M197.4 156.2c-8.2 8.4-11.9 12.9-11.7 14 .3 1 1.1 1.8 1.9 1.8.8 0 1.4.6 1.4 1.4 0 .7.8 1.6 1.9 1.9 2.8.7 26.1-22.8 26.1-26.4 0-3.2-1.7-4.9-5-4.9-1.9 0-5.4 2.9-14.6 12.2zM128 151.3c0 .7 2.8 2.1 6.8 3.1 10.9 3 11.1 2.9 2.9-.8-8.5-4-9.7-4.2-9.7-2.3zM126 175.1c0 2 .4 2 7.8 1.5 4.2-.4 9.7-1 12.2-1.3l4.5-.7-7-.7c-3.8-.4-9.4-.7-12.2-.8-4.7-.1-5.3.1-5.3 2zM232.5 184.6c-.5.1-5.9.6-12 1-10.2.7-10.6.8-5.7 1.5 2.9.4 8.5.9 12.4 1 6.1.4 7.1.2 7.4-1.3.2-1.9-.5-2.7-2.1-2.2zM155.7 197.8c-12.9 12.9-14.7 15.8-11.5 19 3.2 3.2 6.1 1.4 19.2-11.7l12.8-12.8-3.6-3.7c-2-2-3.8-3.6-3.9-3.6-.1 0-6 5.7-13 12.8z"/><path d="M129.7 194c-7.4 1.9-11.5 5.1-29.8 23.7C79 238.8 77.5 241.2 77.5 253c.1 10.9 5.5 19.9 15.4 25.8 3.5 2.1 6.1 2.7 12.8 3 13 .7 16.7-1.5 37.9-23 10.2-10.3 18-19.1 19.4-21.8 3.4-6.8 4-20.3 1-25-.8-1.2-1.6-.8-5 2.5-3.6 3.5-4 4.4-4 8.7 0 2.9-.8 6.4-1.9 8.6-2.5 4.7-34.7 36.7-38.4 38.1-4 1.5-12.3 1.4-15.5-.3-5.7-3-11.2-11.2-11.2-16.8 0-7.2 2-10 18.9-27.1 9.1-9.3 18.4-17.8 20.6-19 2.9-1.5 5.6-2.1 10.1-2 5.9.2 6.3 0 9.9-3.7l3.9-4-3.6-1.5c-4.8-1.9-13.3-2.6-18.1-1.5zM224.5 206.9c4.7 2.2 8.4 3.5 9 3 1.7-1.7 0-2.4-15.4-6.5-.9-.3 2 1.3 6.4 3.5zM185.6 214.7c-.3 2.1-.8 7.5-1.2 12-.6 8.1-.5 8.3 1.6 8.3 2.2 0 2.2-.1 1.5-11.8-.4-6.4-.9-11.8-1-12-.2-.2-.6 1.4-.9 3.5zM204.3 217.5c1.9 8.6 4.3 15.5 5.4 15.5 1.9 0 1.7-1.2-2.3-9.7-1.9-4.3-3.3-6.9-3.1-5.8z"/></svg>